<svg xmlns="http://www.w3.org/2000/svg" width="24.203" height="20" viewBox="0 0 24.203 20">
  <path id="comments" d="M9.415,18.7A1.927,1.927,0,0,0,7.5,20.615v11.71A1.93,1.93,0,0,0,9.415,34.24H21.151L27,38.55a.755.755,0,0,0,1.206-.61v-3.7h1.578A1.93,1.93,0,0,0,31.7,32.321V20.615A1.93,1.93,0,0,0,29.788,18.7Zm0,1.513H29.792a.383.383,0,0,1,.4.4v11.71a.383.383,0,0,1-.4.4H27.454a.753.753,0,0,0-.752.752v2.965l-4.85-3.575a.753.753,0,0,0-.445-.147H9.415a.383.383,0,0,1-.4-.4V20.615a.386.386,0,0,1,.4-.4Zm4.461,3h0a.769.769,0,0,0-.622.415.759.759,0,0,0,.7,1.1h7.517a.757.757,0,1,0,0-1.513H13.876Zm.078,3.653a.748.748,0,0,0-.653.38.759.759,0,0,0,.653,1.137h11.3A.748.748,0,0,0,25.91,28a.759.759,0,0,0-.653-1.137Z" transform="translate(-7.5 -18.7)" fill="#011627"/>
</svg>
